# xmcd
#
# Track frame offsets: 
#        150
#        13024
#        30312
#        45251
#        59268
#        72676
#        86168
#        100631
#        114053
#        128451
#        143277
#
# Disc length: 2130 seconds
#
# Revision: 0
# Processed by: cddbd v1.5.2PL0 Copyright (c) Steve Scherf et al.
# Submitted via: ExactAudioCopyFreeDBPlugin 1.0
#
DISCID=7b08500b
DTITLE=Katrina Burgoyne - White Flag
DYEAR=2011
DGENRE=Country
TTITLE0=Ghost
TTITLE1=I Wasn't Gonna Cry
TTITLE2=Too Late for Sorry
TTITLE3=White Flag
TTITLE4=You Messed Up
TTITLE5=Jessica
TTITLE6=Bones
TTITLE7=Perfect
TTITLE8=Wrecking Ball
TTITLE9=I Don't Know?
TTITLE10=Just A Boy
EXTD=
EXTT0=
EXTT1=
EXTT2=
EXTT3=
EXTT4=
EXTT5=
EXTT6=
EXTT7=
EXTT8=
EXTT9=
EXTT10=
PLAYORDER=
